G04*
G04 #@! TF.GenerationSoftware,Altium Limited,Altium Designer,23.10.1 (27)*
G04*
G04 Layer_Color=8388736*
%FSLAX44Y44*%
%MOMM*%
G71*
G04*
G04 #@! TF.SameCoordinates,C98114AB-1D72-469A-8513-8E5B1E3D2C2F*
G04*
G04*
G04 #@! TF.FilePolarity,Negative*
G04*
G01*
G75*
%ADD14R,1.4640X0.3758*%
G04:AMPARAMS|DCode=15|XSize=1.464mm|YSize=0.3758mm|CornerRadius=0.1879mm|HoleSize=0mm|Usage=FLASHONLY|Rotation=180.000|XOffset=0mm|YOffset=0mm|HoleType=Round|Shape=RoundedRectangle|*
%AMROUNDEDRECTD15*
21,1,1.4640,0.0000,0,0,180.0*
21,1,1.0881,0.3758,0,0,180.0*
1,1,0.3758,-0.5441,0.0000*
1,1,0.3758,0.5441,0.0000*
1,1,0.3758,0.5441,0.0000*
1,1,0.3758,-0.5441,0.0000*
%
%ADD15ROUNDEDRECTD15*%
G04:AMPARAMS|DCode=18|XSize=1.6771mm|YSize=0.4158mm|CornerRadius=0.2079mm|HoleSize=0mm|Usage=FLASHONLY|Rotation=270.000|XOffset=0mm|YOffset=0mm|HoleType=Round|Shape=RoundedRectangle|*
%AMROUNDEDRECTD18*
21,1,1.6771,0.0000,0,0,270.0*
21,1,1.2613,0.4158,0,0,270.0*
1,1,0.4158,0.0000,-0.6306*
1,1,0.4158,0.0000,0.6306*
1,1,0.4158,0.0000,0.6306*
1,1,0.4158,0.0000,-0.6306*
%
%ADD18ROUNDEDRECTD18*%
%ADD19R,0.4158X1.6771*%
%ADD22R,0.8532X0.9032*%
G04:AMPARAMS|DCode=23|XSize=1.4132mm|YSize=0.7832mm|CornerRadius=0.1741mm|HoleSize=0mm|Usage=FLASHONLY|Rotation=0.000|XOffset=0mm|YOffset=0mm|HoleType=Round|Shape=RoundedRectangle|*
%AMROUNDEDRECTD23*
21,1,1.4132,0.4350,0,0,0.0*
21,1,1.0650,0.7832,0,0,0.0*
1,1,0.3482,0.5325,-0.2175*
1,1,0.3482,-0.5325,-0.2175*
1,1,0.3482,-0.5325,0.2175*
1,1,0.3482,0.5325,0.2175*
%
%ADD23ROUNDEDRECTD23*%
G04:AMPARAMS|DCode=24|XSize=0.8032mm|YSize=0.7432mm|CornerRadius=0.2447mm|HoleSize=0mm|Usage=FLASHONLY|Rotation=0.000|XOffset=0mm|YOffset=0mm|HoleType=Round|Shape=RoundedRectangle|*
%AMROUNDEDRECTD24*
21,1,0.8032,0.2538,0,0,0.0*
21,1,0.3138,0.7432,0,0,0.0*
1,1,0.4894,0.1569,-0.1269*
1,1,0.4894,-0.1569,-0.1269*
1,1,0.4894,-0.1569,0.1269*
1,1,0.4894,0.1569,0.1269*
%
%ADD24ROUNDEDRECTD24*%
G04:AMPARAMS|DCode=25|XSize=0.8032mm|YSize=0.7432mm|CornerRadius=0.2447mm|HoleSize=0mm|Usage=FLASHONLY|Rotation=270.000|XOffset=0mm|YOffset=0mm|HoleType=Round|Shape=RoundedRectangle|*
%AMROUNDEDRECTD25*
21,1,0.8032,0.2538,0,0,270.0*
21,1,0.3138,0.7432,0,0,270.0*
1,1,0.4894,-0.1269,-0.1569*
1,1,0.4894,-0.1269,0.1569*
1,1,0.4894,0.1269,0.1569*
1,1,0.4894,0.1269,-0.1569*
%
%ADD25ROUNDEDRECTD25*%
%ADD26C,1.6532*%
%ADD27R,1.6532X1.6532*%
%ADD28C,1.4732*%
%ADD29C,0.8382*%
D14*
X64662Y32720D02*
D03*
D15*
Y39220D02*
D03*
Y45720D02*
D03*
X48260D02*
D03*
Y32720D02*
D03*
D18*
X165100Y129049D02*
D03*
X152100D02*
D03*
Y147320D02*
D03*
X158600D02*
D03*
D19*
X165100D02*
D03*
D22*
X231140Y162230D02*
D03*
Y152730D02*
D03*
Y119710D02*
D03*
Y129210D02*
D03*
D23*
X124610Y65380D02*
D03*
Y55880D02*
D03*
Y46380D02*
D03*
X149710Y65380D02*
D03*
Y55880D02*
D03*
Y46380D02*
D03*
D24*
X190500Y128760D02*
D03*
Y120160D02*
D03*
X121920Y86886D02*
D03*
Y95486D02*
D03*
D25*
X48242Y72390D02*
D03*
X39642D02*
D03*
D26*
X281940Y137160D02*
D03*
Y111760D02*
D03*
Y86360D02*
D03*
Y60960D02*
D03*
Y35560D02*
D03*
D27*
Y162560D02*
D03*
D28*
X158600Y163472D02*
D03*
X121920Y108966D02*
D03*
X93980Y55880D02*
D03*
X20574Y72644D02*
D03*
X230886Y105410D02*
D03*
X190500D02*
D03*
D29*
X222758Y141986D02*
D03*
X239522Y142240D02*
D03*
M02*
