G04*
G04 #@! TF.GenerationSoftware,Altium Limited,Altium Designer,23.10.1 (27)*
G04*
G04 Layer_Color=65535*
%FSLAX44Y44*%
%MOMM*%
G71*
G04*
G04 #@! TF.SameCoordinates,C98114AB-1D72-469A-8513-8E5B1E3D2C2F*
G04*
G04*
G04 #@! TF.FilePolarity,Positive*
G04*
G01*
G75*
%ADD10C,0.2500*%
%ADD11C,0.2000*%
%ADD12C,0.1270*%
%ADD13C,0.2540*%
D10*
X78732Y32720D02*
G03*
X78732Y32720I-1250J0D01*
G01*
X166350Y161455D02*
G03*
X166350Y161455I-1250J0D01*
G01*
D11*
X282940Y181760D02*
G03*
X282940Y181760I-1000J0D01*
G01*
X113160Y65380D02*
G03*
X113160Y65380I-1000J0D01*
G01*
X45961Y51720D02*
X66961D01*
X45961Y26720D02*
X66961D01*
X171100Y127685D02*
Y148685D01*
X146100Y127685D02*
Y148685D01*
D12*
X269240Y175260D02*
X294640D01*
X269240Y22860D02*
X294640D01*
Y175260D01*
X269240Y22860D02*
Y175260D01*
X129160Y71480D02*
X145160D01*
X129160Y40280D02*
X145160D01*
X195300Y119460D02*
Y129460D01*
X185700Y119460D02*
Y129460D01*
X117120Y86186D02*
Y96186D01*
X126720Y86186D02*
Y96186D01*
X38942Y67590D02*
X48942D01*
X38942Y77190D02*
X48942D01*
D13*
X78744Y22857D02*
Y10162D01*
X81283Y7623D01*
X86362D01*
X88901Y10162D01*
Y22857D01*
X93979Y20318D02*
X96518Y22857D01*
X101597D01*
X104136Y20318D01*
Y17779D01*
X101597Y15240D01*
X99058D01*
X101597D01*
X104136Y12701D01*
Y10162D01*
X101597Y7623D01*
X96518D01*
X93979Y10162D01*
X175264Y48257D02*
Y35562D01*
X177803Y33022D01*
X182882D01*
X185421Y35562D01*
Y48257D01*
X200656Y33022D02*
X190499D01*
X200656Y43179D01*
Y45718D01*
X198117Y48257D01*
X193038D01*
X190499Y45718D01*
X122685Y180338D02*
Y167642D01*
X125225Y165103D01*
X130303D01*
X132842Y167642D01*
Y180338D01*
X137920Y165103D02*
X142999D01*
X140460D01*
Y180338D01*
X137920Y177798D01*
X239272Y115318D02*
Y130554D01*
X246890D01*
X249429Y128014D01*
Y122936D01*
X246890Y120397D01*
X239272D01*
X244350D02*
X249429Y115318D01*
X264664D02*
X254507D01*
X264664Y125475D01*
Y128014D01*
X262125Y130554D01*
X257046D01*
X254507Y128014D01*
X198123Y167642D02*
Y182878D01*
X205741D01*
X208280Y180338D01*
Y175260D01*
X205741Y172721D01*
X198123D01*
X203202D02*
X208280Y167642D01*
X213358D02*
X218437D01*
X215898D01*
Y182878D01*
X213358Y180338D01*
X248920Y38098D02*
X243842D01*
X246381D01*
Y25402D01*
X243842Y22863D01*
X241303D01*
X238763Y25402D01*
X253998Y22863D02*
X259077D01*
X256538D01*
Y38098D01*
X253998Y35558D01*
X68581Y76198D02*
X66042Y78738D01*
X60963D01*
X58424Y76198D01*
Y66042D01*
X60963Y63502D01*
X66042D01*
X68581Y66042D01*
X73659Y76198D02*
X76198Y78738D01*
X81277D01*
X83816Y76198D01*
Y73659D01*
X81277Y71120D01*
X78738D01*
X81277D01*
X83816Y68581D01*
Y66042D01*
X81277Y63502D01*
X76198D01*
X73659Y66042D01*
X93981Y111504D02*
X91442Y114044D01*
X86363D01*
X83824Y111504D01*
Y101348D01*
X86363Y98808D01*
X91442D01*
X93981Y101348D01*
X109216Y98808D02*
X99059D01*
X109216Y108965D01*
Y111504D01*
X106677Y114044D01*
X101598D01*
X99059Y111504D01*
X192786Y152144D02*
X190247Y154684D01*
X185168D01*
X182629Y152144D01*
Y141988D01*
X185168Y139448D01*
X190247D01*
X192786Y141988D01*
X197864Y139448D02*
X202943D01*
X200404D01*
Y154684D01*
X197864Y152144D01*
M02*
